<?xml version="1.0" encoding="utf-8"?>
<!-- Generator: Adobe Illustrator 23.0.6, SVG Export Plug-In . SVG Version: 6.00 Build 0)  -->
<svg version="1.1" xmlns="http://www.w3.org/2000/svg" xmlns:xlink="http://www.w3.org/1999/xlink" x="0px" y="0px"
	 viewBox="0 0 200 200" style="enable-background:new 0 0 200 200;" xml:space="preserve">
<style type="text/css">
	.st0{display:none;}
	.st1{display:inline;}
	.st2{fill:#003761;}
	.st3{display:inline;fill:#003761;}
	.st4{display:inline;fill:none;}
	.st5{display:inline;fill:#FFFFFF;}
	.st6{font-family:'MyriadPro-Regular';}
	.st7{font-size:24px;}
	.st8{display:none;fill:#32506E;}
	.st9{fill:#1ED7DC;}
	.st10{fill:#FFFFFF;}
	.st11{fill:none;stroke:#1ED7DC;stroke-width:2;stroke-linecap:square;stroke-miterlimit:10;}
	.st12{fill:none;stroke:#1ED7DC;stroke-width:2;stroke-miterlimit:10;}
	.st13{fill:none;stroke:#FFFFFF;stroke-width:2;stroke-linecap:square;stroke-miterlimit:10;}
	.st14{fill:none;stroke:#53BECB;stroke-width:2;stroke-linecap:square;stroke-miterlimit:10;}
	.st15{fill:none;stroke:#FFFFFF;stroke-width:2;stroke-miterlimit:10;}
	.st16{fill:none;stroke:#54BECA;stroke-width:2;stroke-miterlimit:10;}
	.st17{fill:#003761;stroke:#FFFFFF;stroke-width:2;stroke-linecap:square;stroke-miterlimit:10;}
	.st18{fill:#003761;stroke:#003761;stroke-width:2;stroke-miterlimit:10;}
	.st19{fill:none;stroke:#003761;stroke-width:2;stroke-linecap:square;stroke-miterlimit:10;}
	.st20{fill:#003761;stroke:#FFFFFF;stroke-width:2;stroke-miterlimit:10;}
	.st21{fill:#FFFFFF;stroke:#FFFFFF;stroke-width:2;stroke-linecap:square;stroke-miterlimit:10;}
	.st22{clip-path:url(#SVGID_2_);}
	.st23{clip-path:url(#SVGID_4_);}
	.st24{fill:none;stroke:#FFFFFF;stroke-width:3;stroke-linecap:square;stroke-miterlimit:10;}
	.st25{fill:none;stroke:#1ED7DC;stroke-width:3;stroke-linecap:square;stroke-miterlimit:10;}
	.st26{fill:none;stroke:#003761;stroke-width:10;stroke-linecap:square;stroke-miterlimit:10;}
	.st27{fill:#003761;stroke:#FFFFFF;stroke-width:3;stroke-linecap:square;stroke-miterlimit:10;}
	.st28{fill:none;stroke:#FFFFFF;stroke-width:3;stroke-miterlimit:10;}
	.st29{display:none;fill:none;stroke:#FFFFFF;stroke-width:3.5264;stroke-linecap:square;stroke-miterlimit:10;}
	.st30{display:inline;fill:none;stroke:#FFFFFF;stroke-width:3;stroke-linecap:square;stroke-miterlimit:10;}
	.st31{display:none;fill:none;stroke:#003761;stroke-width:13;stroke-miterlimit:10;}
</style>
<g id="Ebene_1" class="st0">
	<g class="st1">
		<rect x="0" class="st2" width="200" height="200"/>
	</g>
</g>
<g id="Intermediates">
</g>
<g id="API">
</g>
<g id="Drug_Products">
	<g>
		<path class="st9" d="M44,142.3c-2.2-3.8-7.1-5.2-11-2.9c-1.9,1.1-3.2,2.8-3.7,4.9c-0.5,2.1-0.3,4.2,0.8,6.1c1.5,2.6,4.2,4,7,4
			c1.4,0,2.8-0.3,4-1.1c2.6-1.5,4-4.2,4-7C45.1,144.9,44.8,143.5,44,142.3z M40.1,151.5c-2.9,1.7-6.6,0.7-8.2-2.2
			c-0.8-1.4-1-3-0.6-4.6c0.4-1.6,1.4-2.9,2.8-3.7c0.9-0.5,2-0.8,3-0.8c2.1,0,4.1,1.1,5.2,3C44,146.2,43,149.9,40.1,151.5z"/>
	</g>
	<g>
		<path class="st9" d="M55,144.7c-0.4,1.6-0.2,3.2,0.6,4.6c0.7,1.3,1.9,2.2,3.2,2.7v2.1c0,0,0,0-0.1,0c-2.1-0.6-3.8-1.9-4.9-3.7
			c-1.1-1.9-1.4-4-0.8-6.1c0.5-2.1,1.9-3.8,3.7-4.9c0.6-0.4,1.3-0.7,2-0.8v2.1c-0.3,0.1-0.7,0.3-1,0.5
			C56.4,141.9,55.4,143.2,55,144.7z"/>
	</g>
	<g>
		<path class="st9" d="M44,107.1c-2.2-3.8-7.1-5.2-11-2.9c-1.9,1.1-3.2,2.8-3.7,4.9c-0.5,2.1-0.3,4.2,0.8,6.1
			c1.1,1.9,2.8,3.2,4.9,3.8c0.7,0.2,1.4,0.3,2.1,0.3c1.4,0,2.8-0.4,4-1.1c1.9-1.1,3.2-2.8,3.7-4.9c0.2-0.7,0.3-1.4,0.3-2.1
			C45.1,109.7,44.8,108.4,44,107.1z M42.9,112.7c-0.4,1.6-1.4,2.9-2.8,3.7c-1.4,0.8-3,1-4.6,0.6c-1.6-0.4-2.9-1.4-3.7-2.8
			c-0.8-1.4-1-3-0.6-4.6c0.4-1.6,1.4-2.9,2.8-3.7c0.9-0.5,2-0.8,3-0.8c0.5,0,1.1,0.1,1.6,0.2c1.6,0.4,2.9,1.4,3.7,2.8
			C43.1,109.5,43.3,111.1,42.9,112.7z"/>
	</g>
	<g>
		<path class="st9" d="M55,109.6c-0.4,1.5-0.2,3.2,0.6,4.6c0.7,1.3,1.9,2.2,3.2,2.7v2.1c0,0,0,0-0.1,0c-2.1-0.6-3.8-1.9-4.9-3.8
			c-1.1-1.8-1.4-4-0.8-6.1c0.5-2.1,1.9-3.8,3.7-4.9c0.6-0.4,1.3-0.7,2-0.8v2.1c-0.3,0.1-0.7,0.3-1,0.5C56.4,106.7,55.4,108,55,109.6
			z"/>
	</g>
	<g>
		<path class="st10" d="M60.8,163.2v-2v-8.9v-12.1v-10.5v-2v-10.5v-12.1v-8.9v-2v-2.5h33.8l0.9-2H60.2L47.3,76.8l-1.4,1.4l12.9,12.9
			v3H29c-4.8,0-8.7,3.9-8.7,8.7v51.7c0,4.8,3.9,8.7,8.7,8.7h29.8v3l-14.5,14.5l1.4,1.4l14.5-14.5h20l0.9-2H60.8V163.2z M29,161.2
			c-3.7,0-6.7-3-6.7-6.7v-51.7c0-3.7,3-6.7,6.7-6.7h29.8v9.2v11.4v10.9h-28v2h28v10.9V152v9.2H29z"/>
		<polygon class="st10" points="148.5,89.7 147.5,91.7 170.4,91.7 170.4,165.7 92.2,165.7 91.3,167.7 172.4,167.7 172.4,89.7 		"/>
	</g>
	<g>
		<g>
			
				<rect x="67.5" y="155.7" transform="matrix(0.4225 -0.9063 0.9063 0.4225 -89.6361 172.7661)" class="st9" width="46.6" height="2"/>
		</g>
		<g>
			<rect x="114.6" y="66" transform="matrix(0.4226 -0.9063 0.9063 0.4226 0.2143 147.1115)" class="st9" width="2" height="14.7"/>
		</g>
		<g>
			
				<rect x="106.5" y="83.3" transform="matrix(0.4226 -0.9063 0.9063 0.4226 -20.1502 149.7926)" class="st9" width="2" height="14.7"/>
		</g>
		<g>
			
				<rect x="98.4" y="100.7" transform="matrix(0.4226 -0.9063 0.9063 0.4226 -40.5141 152.4738)" class="st9" width="2" height="14.7"/>
		</g>
		<path class="st10" d="M179.6,74l-23.1-10.8l0,0l-1.4-0.7l-7.2-3.4l12.6-27.1l7.8,3.6l0.8-1.8l-34.6-16.2l-0.8,1.8l7.8,3.6
			l-12.6,27.1l-6.8-3.2l0,0l-1.8-0.8v0L97,35.5l-0.8,1.8l23.1,10.8l-37.7,80.8l36.5,17l37.7-80.8l23.1,10.8L179.6,74z M143.2,24.1
			l15.5,7.2l-12.6,27.1l-15.5-7.2L143.2,24.1z M117,143.3L84.2,128l36.9-79l32.8,15.3L117,143.3z"/>
	</g>
</g>
<g id="Packaging">
</g>
<g id="Technology">
</g>
<g id="Produkte">
</g>
<g id="Services">
</g>
<g id="Midas">
</g>
</svg>
