<?xml version="1.0" encoding="utf-8"?>
<!-- Generator: Adobe Illustrator 27.3.1, SVG Export Plug-In . SVG Version: 6.00 Build 0)  -->
<svg version="1.1" id="Ebene_1" xmlns="http://www.w3.org/2000/svg" xmlns:xlink="http://www.w3.org/1999/xlink" x="0px" y="0px"
	 viewBox="0 0 200 200" style="enable-background:new 0 0 200 200;" xml:space="preserve">
<style type="text/css">
	.st0{fill:#FFFFFF;}
	.st1{fill:none;}
	.st2{fill:#1ED7DC;}
</style>
<g>
	<path class="st0" d="M77.7,111.7V89.5l20-11.5l-1-1.7l-20,11.5L57.2,76.5V52.8L35.7,40.4L14.3,52.8v24.8L35.7,90l20.5-11.8
		l19.5,11.2v22.3l-20.5,11.8v24.8l21.5,12.4l21.5-12.4v-24.8L77.7,111.7z M55.2,76.5L35.7,87.7L16.3,76.5V54l19.5-11.2L55.2,54V76.5
		z M96.2,147.2l-19.5,11.2l-19.5-11.2v-22.5l19.5-11.2l19.5,11.2V147.2z"/>
	<rect x="75.1" y="74.5" transform="matrix(0.8661 -0.4999 0.4999 0.8661 -26.106 53.5764)" class="st0" width="23.6" height="2"/>
	<rect x="83" y="115.6" transform="matrix(0.4999 -0.8661 0.8661 0.4999 -65.3821 134.7238)" class="st0" width="2" height="16.8"/>
	<rect x="20.4" y="56.9" class="st0" width="2" height="16.8"/>
	<rect x="34.6" y="76.2" transform="matrix(0.8661 -0.4999 0.4999 0.8661 -32.8461 31.8461)" class="st0" width="16.8" height="2"/>
	
		<rect x="75.6" y="146.9" transform="matrix(0.8661 -0.4999 0.4999 0.8661 -62.7164 61.7931)" class="st0" width="16.8" height="2"/>
	<rect x="42" y="44.9" transform="matrix(0.4999 -0.8661 0.8661 0.4999 -24.6128 63.885)" class="st0" width="2" height="16.8"/>
	<rect x="61.2" y="127.6" class="st0" width="2" height="16.8"/>
</g>
<g>
	<rect x="91.4" y="22.6" class="st1" width="93.3" height="10"/>
</g>
<g>
	<rect x="91.4" y="167.4" class="st1" width="93.3" height="10"/>
</g>
<g>
	<rect x="93.7" y="96.5" class="st1" width="88.7" height="7"/>
</g>
<g>
	<path class="st1" d="M161.7,100c0,13-10.6,23.6-23.6,23.6c-13,0-23.6-10.6-23.6-23.6s10.6-23.6,23.6-23.6
		C151.1,76.4,161.7,87,161.7,100"/>
</g>
<path class="st2" d="M185.7,33.6v-12H90.4v12h5.8v61.9h-3.5v9h3.5v61.9h-5.8v12h95.3v-12H180v-61.9h3.5v-9H180V33.6H185.7z
	 M92.4,31.6v-8h91.3v8H180h-2H98.2h-2H92.4z M94.7,102.5v-5h1.5h2h15.4c-0.1,0.8-0.1,1.7-0.1,2.5s0,1.7,0.1,2.5H98.2h-2H94.7z
	 M115.9,95.5c2.1-10.3,11.2-18.1,22.2-18.1c10.9,0,20.1,7.8,22.2,18.1c0.1,0.7,0.2,1.3,0.3,2c0.1,0.8,0.1,1.7,0.1,2.5s0,1.7-0.1,2.5
	c-0.1,0.7-0.2,1.3-0.3,2c-2.1,10.3-11.2,18.1-22.2,18.1c-10.9,0-20.1-7.8-22.2-18.1c-0.1-0.7-0.2-1.3-0.3-2
	c-0.1-0.8-0.1-1.7-0.1-2.5s0-1.7,0.1-2.5C115.7,96.8,115.8,96.2,115.9,95.5z M183.7,168.4v8H92.4v-8h3.8h2H178h2H183.7z M178,166.4
	H98.2v-61.9h15.7c2.1,11.4,12.2,20.1,24.2,20.1c12,0,22.1-8.7,24.2-20.1H178V166.4z M181.4,97.5v5H180h-2h-15.4
	c0.1-0.8,0.1-1.7,0.1-2.5s0-1.7-0.1-2.5H178h2H181.4z M178,95.5h-15.7c-2.1-11.4-12.2-20.1-24.2-20.1c-12,0-22.1,8.7-24.2,20.1H98.2
	V33.6H178V95.5z"/>
<g>
	<path class="st0" d="M135.4,114l-1.3-0.5c-4.6-1.7-6.7-6.2-6.8-10c0-4.8,4.2-9.2,6.1-10.8c1.8-1.6,2.8-3.5,2.8-5.3v-1.8l1.5,1
		c5.2,3.3,4.1,10.5,4,10.8l-0.2,1l-2-0.3l0.2-1c0-0.1,0.8-4.8-1.8-7.7c-0.5,1.7-1.6,3.5-3.2,4.9c-1.3,1.1-5.5,5.1-5.4,9.3
		c0,2.8,1.4,6,4.3,7.6c0.3-1.6,1.1-2.9,1.8-4c0.8-1.3,1.6-2.6,1.7-4.3l0.1-2.2l1.6,1.5c2.3,2.1,3.6,5.2,3.9,8.9c1.8-1,3.8-3,4.1-6.8
		c0.3-4-2-7.6-3.5-9.3l-0.6-0.8l1.5-1.3l0.6,0.8c1.6,2,4.3,6,3.9,10.7c-0.4,4.4-2.8,7.7-6.7,9.1l-1.3,0.5l0-1.4
		c0-3.1-0.7-5.6-2.1-7.5c-0.4,1.2-1,2.2-1.6,3.1c-0.9,1.4-1.7,2.7-1.7,4.4L135.4,114z"/>
</g>
</svg>
